<svg xmlns="http://www.w3.org/2000/svg" width="1440" height="900" viewBox="0 0 1440 900">
  <defs>
    <style>
      .bg { fill: #0f1115; }
      .panel { fill: #151923; stroke: #2a3142; stroke-width: 1; }
      .panel2 { fill: #111522; stroke: #2a3142; stroke-width: 1; }
      .chip { fill: #1d2433; stroke: #2a3142; stroke-width: 1; }
      .tab { fill: #1a2130; stroke: #2a3142; stroke-width: 1; }
      .tab_on { fill: #16c6d4; }
      .btn { fill: #16c6d4; }
      .btn2 { fill: #2a3142; }
      .title { fill: #d7dde8; font: 700 22px "Segoe UI", Arial, sans-serif; }
      .subtitle { fill: #9aa6bd; font: 500 14px "Segoe UI", Arial, sans-serif; }
      .label { fill: #c2cbe0; font: 700 13px "Segoe UI", Arial, sans-serif; }
      .text { fill: #c2cbe0; font: 400 13px "Segoe UI", Arial, sans-serif; }
      .muted { fill: #8b95aa; font: 400 12px "Segoe UI", Arial, sans-serif; }
      .mono { fill: #c2cbe0; font: 500 11px "Consolas", "Segoe UI", monospace; }
      .accent { fill: #16c6d4; font: 800 26px "Segoe UI", Arial, sans-serif; }
      .chk { fill: #0e1320; stroke: #2a3142; stroke-width: 1; }
      .chk_on { fill: #0d2b2e; stroke: #16c6d4; stroke-width: 1; }
      .chk_mark { fill: none; stroke: #d7dde8; stroke-width: 2.5; stroke-linecap: round; stroke-linejoin: round; }
      .pill_warn { fill: #3a2c12; stroke: #8b6a2b; stroke-width: 1; }
      .warn { fill: #ffb020; font: 800 12px "Segoe UI", Arial, sans-serif; }
    </style>
  </defs>

  <rect class="bg" x="0" y="0" width="1440" height="900"/>

  <rect class="panel" x="24" y="20" width="1392" height="68" rx="12"/>
  <text class="accent" x="48" y="62">OrionAgroquim</text>
  <text class="subtitle" x="242" y="60">Guia: Formulação Manual — tabela com colunas (inclui B com 2 fontes)</text>

  <rect class="panel" x="24" y="104" width="1392" height="772" rx="12"/>

  <rect class="panel2" x="44" y="124" width="1352" height="54" rx="12"/>
  <rect class="tab" x="60" y="136" width="210" height="30" rx="15"/>
  <text class="label" x="118" y="157">PRINCIPAL</text>
  <rect class="tab" x="278" y="136" width="240" height="30" rx="15"/>
  <text class="label" x="336" y="157">TOP 5 FORMAS</text>
  <rect class="tab_on" x="526" y="136" width="280" height="30" rx="15"/>
  <text class="label" x="566" y="157" fill="#071014">FORMULAÇÃO MANUAL</text>
  <rect class="tab" x="814" y="136" width="160" height="30" rx="15"/>
  <text class="label" x="866" y="157">LAUDO</text>

  <rect class="panel" x="44" y="192" width="420" height="664" rx="12"/>
  <text class="title" x="68" y="232">Seleção</text>
  <text class="subtitle" x="68" y="256">Marque nutrientes e escolha insumos inerentes.</text>

  <rect class="panel2" x="64" y="276" width="380" height="194" rx="10"/>
  <text class="label" x="80" y="306">Nutrientes (flags)</text>
  <rect class="chip" x="80" y="324" width="340" height="28" rx="10"/>
  <rect class="chk" x="90" y="330" width="16" height="16" rx="3"/>
  <text class="text" x="116" y="344">N</text>
  <rect class="chip" x="80" y="358" width="340" height="28" rx="10"/>
  <rect class="chk_on" x="90" y="364" width="16" height="16" rx="3"/>
  <path class="chk_mark" d="M94 372 L97 376 L104 367"/>
  <text class="text" x="116" y="378">P2O5</text>
  <rect class="chip" x="80" y="392" width="340" height="28" rx="10"/>
  <rect class="chk_on" x="90" y="398" width="16" height="16" rx="3"/>
  <path class="chk_mark" d="M94 406 L97 410 L104 401"/>
  <text class="text" x="116" y="412">B</text>
  <rect class="chip" x="80" y="426" width="340" height="28" rx="10"/>
  <rect class="chk" x="90" y="432" width="16" height="16" rx="3"/>
  <text class="text" x="116" y="446">K2O</text>

  <rect class="panel2" x="64" y="484" width="380" height="164" rx="10"/>
  <text class="label" x="80" y="514">Nutriente ativo</text>
  <rect class="chip" x="80" y="532" width="340" height="36" rx="10"/>
  <text class="label" x="96" y="556">P2O5</text>
  <text class="muted" x="146" y="556">Selecionar insumo → informar meta (%)</text>
  <rect class="chip" x="80" y="576" width="340" height="36" rx="10"/>
  <text class="label" x="96" y="600">Meta P2O5 (%)</text>
  <text class="mono" x="212" y="600">5.0241</text>
  <rect class="btn2" x="300" y="584" width="120" height="28" rx="10"/>
  <text class="label" x="330" y="604">ADICIONAR</text>

  <rect class="panel2" x="64" y="662" width="380" height="194" rx="10"/>
  <text class="label" x="80" y="692">Insumos do nutriente</text>
  <text class="muted" x="80" y="714">Ex.: fontes de P2O5</text>
  <rect class="chip" x="80" y="732" width="340" height="34" rx="10"/>
  <rect class="chk_on" x="90" y="741" width="16" height="16" rx="3"/>
  <path class="chk_mark" d="M94 749 L97 753 L104 744"/>
  <text class="text" x="116" y="754">MAP Cristal</text>
  <rect class="chip" x="80" y="772" width="340" height="34" rx="10"/>
  <rect class="chk" x="90" y="781" width="16" height="16" rx="3"/>
  <text class="text" x="116" y="794">Ácido Fosfórico</text>
  <rect class="chip" x="80" y="812" width="340" height="34" rx="10"/>
  <rect class="chk" x="90" y="821" width="16" height="16" rx="3"/>
  <text class="text" x="116" y="834">MKP</text>

  <rect class="panel" x="484" y="192" width="912" height="664" rx="12"/>
  <text class="title" x="508" y="232">Tabela da Formulação (colunas por nutriente)</text>
  <text class="subtitle" x="508" y="256">Inclui contribuição de cada insumo (ex.: B vindo de 2 fontes).</text>

  <rect class="panel2" x="504" y="276" width="872" height="54" rx="12"/>
  <rect class="pill_warn" x="520" y="290" width="172" height="28" rx="14"/>
  <text class="warn" x="556" y="310">B EM 2 FONTES</text>
  <text class="muted" x="708" y="308">Ex.: Ácido Bórico + Octaborato de Sódio</text>
  <rect class="btn2" x="1230" y="290" width="146" height="36" rx="10"/>
  <text class="label" x="1250" y="314">GERAR LAUDO</text>

  <rect class="chip" x="504" y="344" width="872" height="34" rx="10"/>
  <text class="label" x="520" y="366">Insumos</text>
  <text class="label" x="820" y="366">Massa</text>
  <text class="label" x="900" y="366">N</text>
  <text class="label" x="950" y="366">P2O5</text>
  <text class="label" x="1014" y="366">K2O</text>
  <text class="label" x="1064" y="366">Ca+</text>
  <text class="label" x="1110" y="366">Mg</text>
  <text class="label" x="1148" y="366">SO4</text>
  <text class="label" x="1202" y="366">B</text>
  <text class="label" x="1240" y="366">Zn</text>
  <text class="label" x="1278" y="366">Cu</text>
  <text class="label" x="1316" y="366">Mn</text>
  <text class="label" x="1356" y="366">Mo</text>

  <rect class="panel2" x="504" y="388" width="872" height="360" rx="10"/>
  <text class="mono" x="520" y="414">MAP Cristal</text>
  <text class="mono" x="820" y="414">10.484</text>
  <text class="mono" x="900" y="414">0.92</text>
  <text class="mono" x="950" y="414">5.02</text>
  <text class="mono" x="1202" y="414">0.00</text>

  <text class="mono" x="520" y="444">Uréia</text>
  <text class="mono" x="820" y="444">25.260</text>
  <text class="mono" x="900" y="444">9.08</text>

  <text class="mono" x="520" y="474">Ácido Bórico</text>
  <text class="mono" x="820" y="474">4.000</text>
  <text class="mono" x="1202" y="474">0.54</text>

  <text class="mono" x="520" y="504">Octaborato de Sódio</text>
  <text class="mono" x="820" y="504">6.000</text>
  <text class="mono" x="1202" y="504">0.96</text>

  <text class="mono" x="520" y="534">Água</text>
  <text class="mono" x="820" y="534">79.589</text>

  <rect class="chip" x="504" y="764" width="872" height="78" rx="10"/>
  <text class="label" x="520" y="792">Resumo e checagens</text>
  <text class="muted" x="520" y="814">- Soma alvos: N 10.00% | P2O5 5.0241% | B 1.50% | Q.S.P 100 L</text>
  <text class="muted" x="520" y="834">- Se houver ureia: sugerir NBPT (IN39) | - ordem de preparo e temperatura recomendadas</text>
</svg>
